<svg xmlns="http://www.w3.org/2000/svg" viewBox="0 0 512 512">
  <defs>
    <linearGradient id="bg" x1="0%" x2="100%" y1="0%" y2="100%">
      <stop offset="0%" stop-color="#17263a"/>
      <stop offset="100%" stop-color="#070b12"/>
    </linearGradient>
    <linearGradient id="accent" x1="0%" x2="100%" y1="0%" y2="100%">
      <stop offset="0%" stop-color="#8db1ff"/>
      <stop offset="100%" stop-color="#5b8cff"/>
    </linearGradient>
  </defs>
  <rect width="512" height="512" fill="url(#bg)"/>
  <rect x="72" y="96" width="368" height="320" rx="52" fill="#101927" stroke="#314256" stroke-width="12"/>
  <rect x="72" y="96" width="368" height="74" rx="52" fill="#1a2b42"/>
  <circle cx="132" cy="133" r="14" fill="#8db1ff"/>
  <circle cx="178" cy="133" r="14" fill="#2fb781"/>
  <circle cx="224" cy="133" r="14" fill="#d28a2e"/>
  <g fill="#324861">
    <rect x="112" y="210" width="86" height="62" rx="16"/>
    <rect x="213" y="210" width="86" height="62" rx="16"/>
    <rect x="314" y="210" width="86" height="62" rx="16"/>
    <rect x="112" y="289" width="86" height="62" rx="16"/>
    <rect x="213" y="289" width="86" height="62" rx="16"/>
  </g>
  <path fill="url(#accent)" d="M361 334 247 289l15 87-24 12-41-59-69 25-14-24 59-47-26-99 24-12 58 72 140-124c12-10 31-4 37 11 3 8 1 17-6 23L361 334z"/>
</svg>
